<?xml version="1.0" encoding="UTF-8"?>
<svg version="1.1" viewBox="0 0 2000 2000" width="500" height="500" xmlns="http://www.w3.org/2000/svg">
<path transform="translate(0)" d="m0 0h2e3v2e3h-2e3z" fill="#FDFDFE"/>
<path transform="translate(1013,386)" d="m0 0 9 2 9 8 4 7 1 14 16 6 29 10 12 4 8 3 51 18 11 4 5-1 3-3h8l6 4 6 9 16 4 25 5 2-4 3-2 6 1 5 5v7l-6 5-7-1-5-5-9-3-25-5h-8l-1 8 8 26 9 28 7 22 1 8 9 3 5 6 2 3 11-3 34-11 22-7 6-9 6-3 6 2 5 6v7l-6 5 1 26 2 16 1 9 1 23 8 7v2l52-1 4-3h7l4 5v7l-4 3-4 1-6-2-3-5-48-1-2 9-4 3 1 4 8 11 10 11 8 10 8 9 11 14 9 10 11 14 11 13 2 4h2v2h6l3-11 5-29v-6l-5-5 1-7 5-4h6l5 5v6l-5 4-3 3-6 37-1 1v8l5 2 1 1v9l-6 6h-7l-6-5v-2l-25 2-24 3-29 3-18 1-1 9-3 4v4l5 5 10 9 9 7v2l4 2 9 9 11 9 10 9 2 1v2l4 2v2l4 2 7 7 9 7v2l-4-2-8-6v-2l-4-2-15-14-3-2v-2l-4-2-11-10-11-9-10-10-11-9-4-4-8-1-2 6 4 68 3 49 6 5 9-3 28-13 14-6 15-7 9-4 6-3 3-10 2-3 9-3 4 1 28-21 11-8 8-6 1-11 4-5 2-1h8l5 5 1 2v6l-4 5-5 2h-7l-5 3-20 14-8 6-10 7-5 2 3 7 1 2v7l-3 4 1 5 1 3h2l9 11 12 11 8 10 1 3-4 1-9-11-4-4v-2h-2l-11-14-7-8-13-2-3-3-8 1-30 14-18 8-15 7-9 5-1 1v10l8 9 11 9 3 2v2l4 2 5 4v2l4 2 12 10 5 1 2-3 5 2 4 1 8-4 11-7 6-2v3l-13 8-9 6h-2l2 6 16 6 9 4 12 5 4-1 4-3 6 1 4 4 1 5-3 5-4 2-6-1-3-3-3-5-31-12-5-2h-6l-2 2-5 2-5 14-10 34-2 7 5 5 3 5-1 5-6 7-6 1-6-4-3-4v-8l6-5 4-2 7-23 6-22 3-10v-3l-8 1-23 12-15 8-23 11-6 3h-2l1 8-5 6-9 2-1 2-1 21-2 4v-32l-10 4-72 36-19 10-9 4h-2l1-3 8-4h3v-2l16-8 43-22 19-10 16-9 2-2 3-8-6-5-9-7-14-11-16-13-20-16-8-1-9 1-22 58-7 19-18 48 2 4 3 2h24l29 3v1h-56l-4 9-8 4-1 3 4 20 4 24 3 19 2 15 3 14 4 23 2 4 3 1 7-6 7-8 11-14 9-10 11-14 9-10 11-14 9-10 11-14 11-12 2-5-7-8-2-7-25-1-15-2v-1h41l3-7 7-6 5-2h10l5 5 4 5 2 4v9l-2 3-1 6 16 4 28 9 2-5 6-3 5 1 6 5 1 2v8l-6 5-8 1-4-2-4-7-15-6-28-9h-6l-5 2h-10l-2 4-12 14-2 3h-2l-2 5-10 11-11 14-9 10-11 14-9 10-11 14-11 13-3 4v4l13-1 59-9h6v2l-13 3-60 10-3 4-2 5-5 4-2 1h-7l-6-4-4-6h-17v2l-51 7-31 4-20 1-14 2h-6v2l-23 4-4 9-4 5-9 5-6 2h-8l-10-4-8-9-2-4-2-13-11-3-20-7-34-12-25-9-20-7-16-6-5-1-6 7-5 2h-9l-9-6-4-7v-15l-8-7-44-44-7-8-16-16-7-8-30-30-2-3-7 1-9 1-10-4-8-7-4-7-1-4v-12l4-8 5-6-1-7-11-42-14-55-11-44-4-17-4-16-2-9-5-2-4-5v-17l3-5 5-5 15-54 24-88 13-47 8-29 4-13v-2l-7-6-3-6v-9l5-8 8-5h9l8 5 3 3 5-2 14-12 13-10 18-14 13-10 4-3h2v-2l16-12 14-11 13-10 18-14 13-10 4-3h2v-2l5-2v-2l18-14 6-4 3-13 4-5 6-4 3-1h8l8 4 6 8 39-7 85-14 8-2 2-11 6-8 7-5z" fill="#0F8EFE"/>
<path transform="translate(861,805)" d="m0 0 4 1 11 6 1 1 1 56 1-55 3-3 8-2h5l4 6 10 14v2h2l4 6 8 11 14 19 9 13 8 10 3 3-2 10-1 6-7 7-7 8-19 19-7 8-16 16-4 5-1 3-9-3-4-2h-11l-4-1-2 4-6 4-6 10-2 6-15-1-49-7-30-4-3-1-3-13-5-5-2-4 13-22 9-15 10-16 6-9 1-3 10 2 7-2 5-2 8 11 13 16 20 26 13 16 6 7-2-5-8-10-11-14-9-12-10-13-11-13-6-8-1-1 1-7 2-5-1-8-1-6 8-10 18-18 9-11 9-10z" fill="#F8FBFE"/>
<path transform="translate(1097,1135)" d="m0 0h10l10 7 2 6 14 88 3 18 1 10-2 2h-7l-10-8-13-10v-2l-4-2-11-10-9-7-11-10-9-7-14-12-3-2v-2l-4-2-11-9-9-7v-2l-4-2-8-7 5 6 11 9 11 10 11 9 14 12 8 7 14 12 11 9 9 8 2 1v2l5 2 7 7 12 9 1 5-1 1-36 5-120 16h-5l-4-7-6-12 15-57 8-30 3-10 1-7 2-2 10-2 9-5 4-12 1-7 25-2 49-6z" fill="#FAFCFE"/>
<path transform="translate(1278,812)" d="m0 0 5 1 2 25 3 45 1 29 2 22-4 3 7-4 1 2 6 3 3 1 35-16 14-6 15-7 9-4 6-3 3-10 2-3 9-3 4 1 28-21 11-8 8-6 1-11 4-5 2-1h8l5 5 1 2v6l-4 5-5 2h-7l-5 3-20 14-8 6-10 7-5 2 3 7 1 2v7l-3 4 1 5 1 3h2l9 11 12 11 8 10 1 3-4 1-9-11-4-4v-2h-2l-11-14-7-8-13-2-3-3-8 1-30 14-18 8-15 7-9 5-1 1v10l8 9 11 9 3 2v2l4 2 5 4v2l4 2 12 10 5 1 2-3 5 2 4 1 8-4 11-7 6-2v3l-13 8-9 6h-2l2 6 16 6 9 4 12 5 4-1 4-3 6 1 4 4 1 5-3 5-4 2-6-1-3-3-3-5-31-12-5-2h-6l-2 2-5 2-5 14-10 34-2 7 5 5 3 5-1 5-6 7-6 1-6-4-3-4v-8l6-5 4-2 7-23 6-22 3-10v-3l-8 1-23 12-15 8-23 11-6 3h-2l1 8-5 6-9 2-1 2-1 21-2 4v-32l-10 4-72 36-19 10-9 4h-2l1-3 8-4h3v-2l16-8 43-22 19-10 16-9 2-2 3-10-1-3h-2v-2l-5-2-11-9-16-13-13-11-14-11-5-5 4-13 5-2 9-2 13-4 25-7 20-6h3v-2l-22 6-14 4-39 11-5-1-5-4 1-6 10-16 7-12 9-15 16-26 18-30 8-14 16-26z" fill="#0F8EFE"/>
<path transform="translate(751,983)" d="m0 0 14 1 83 12 2 2 4 11 5 6 7 5-1 6-6 14-17 41-14 33-4 3h-11v6l-2 2-10-1-113-23-36-7-5-3-3-18 6-4 7-8 24-24 7-8h2l2-4 18-18 7-8 8-7 8 2 8-1 3 3 5 10 9 15 7 13 13 23 15 26 16 28 2 3-1-7h-2l-3-7-9-15-2-6h-2l-3-7-7-12-2-2-2-7h-2l-3-7-9-15-6-11-6-10-6-11-2-3 1-4z" fill="#F8FBFE"/>
<path transform="translate(786,703)" d="m0 0 7 1 8 7 6 5 5 5v2l4 2v2l4 2v2l4 2v2l4 2v2l4 2v2l4 2v2l4 2 13 13 1 5-3 6-1 8v8l7 10 1 5-7 8h-2v3l-7 6-6 8-5 5-3 4h-2l-2 4-3 5-3 1-1 3-3 1-6 8-3 3-1 2-4-2-5-3-10 1-7 4-3 5-6-2-9-7-13-9-22-16-1 2 5 2 11 9 12 8 12 9 9 6 1 11 4 5v6l-12 19-6 11-8 13-9 15-3 6-6 1-3-4-3-9-3-13-6-21-10-37-6-20v-7l12-6 7-7 2-10-1-9-2-8 26-3 56-9 13-2h8v-2h13l1-2 7 1v-3l-30 5-92 13-6-1-1-1v-5l9-10 7-11 13-18 10-14 12-17 10-14 6-9h2z" fill="#F9FCFE"/>
<path transform="translate(1187,991)" d="m0 0 8 1 13 11 13 10 17 14 9 7 10 7 1 2 3 2-4 9-9 6-27 14-19 10-25 13-13 7h-3v2l-9 4-3 3 2 1-12 6v2l39 2 44 3h12l2-3-1 5h-35l9 1 25 1 2 3 2 6 6 7-2 5-8 8-11 14-22 26-7 9-8 9-9 11-11 13-8 10-11 12-3 1-4-3-2-7-7-42-3-16-3-21-4-24-2-9 4-4 6-3 4-9h48l-21-2h-24l-6-5 2-8 7-18 9-24 11-30 11-29 7-18 1-1z" fill="#F8FBFE"/>
<path transform="translate(1039,869)" d="m0 0 4 1 5 5 6 4 6 3 2 4 3-4 13-3 6-4h4l8 10 4 4v2l3 1 7 8 10 11 7 8 9 10 8 8 7 8 9 10 7 8 4 6-2 5-2 4-42 8-49 8-8-1-3-2-5 1h-8l-20-20-7-8-10-10v-2l-4-2v-2l-3-1-7-8-5-4-7-8-11-11-2-1-3-8 1-6 5-5 39-17 15-7z" fill="#F9FCFE"/>
<path transform="translate(831,458)" d="m0 0h4l-1 6-7 19-13 40-14 41-8 24-2 3-8 3-3 6-3 3-11 4-12 5-13 5-6 3 7-2 21-8 14-6 5 1 5 6 4 1 6-4 4-5h7l22 5 35 7 7 3 3 6-2 5-5 4-3 3h-2l1 3-6 1-1 3-8 4-17 14-14 11-11 9-9 7h-2v2l-4-1-1-3-1 2h-2v2l-6-1-13-11-11-9-10-8-6-5v-2l-4-2-3-2v-2l-4-2-5-4 1-5 3-13 2-3-4-1-5-8 1-5 7-10 8-11 12-17 14-19 8-11 7-10 22-30 10-14 12-17 6-8z" fill="#F5FAFE"/>
<path transform="translate(902 1e3)" d="m0 0 30 1 44 2 13 1 38 1 15 1 6 9 2 4 3 1-1 6-15 28-11 20-6 12-10 19-8 16-4 6-3 1h-8l-8 3h-3l-14-19-13-17-36-48-10-14-12-16 1-5 5-5 3-5h2z" fill="#FAFCFE"/>
<path transform="translate(842,1135)" d="m0 0h8l50 7 48 6 19 3 3 1 4 10 9 7-2 9-12 44-11 42-2 9-3 1-8-4h-12l-9 4h-3l-5-10-7-8-8-11-10-14-4-5-28-38-11-15-10-13-2-1-2-6h-2v-6l7-8z" fill="#F9FBFE"/>
<path transform="translate(1269,807)" d="m0 0h5l1 4-5 9-8 13-16 27-12 20-11 19-9 14-4 7-16 27-6 11-4 2-2-1-2 6-5 2h-3l-2-4-5-5-5-4-7-8-9-11-5-6-5-5-6-5-6-7-3-3-9-11-5-5-9-10-8-9 2-6 4-8 2-6 3-3 40-3 20-1 28-3 10 10-1 12-7 46-4 25-1 11h2l2-19 3-19 5-36 3-17 1-2 10-2 5-6 1-10 11-7 12-6 22-12z" fill="#FAFCFE"/>
<path transform="translate(646,1095)" d="m0 0h7l57 12 50 10 23 5 21 4 6 3v10l3 1v6l-9 16-9 14-4 8-8 13-6 11-5 10-15 4-6 5-3-1v-2h-2v-2l-4-2-28-28v-2h-2l-4-4v-2h-2v-2h-2v-2h-2v-2l-4-2v-2l-3-1-5-5v-2h-2l-7-8-18-18v-2l-3-1-7-8-17-17 1-5 6-7z" fill="#FAFCFE"/>
<path transform="translate(987,695)" d="m0 0 8 1 5 6 14 29 9 20 14 29 8 18 7 15 5 9-1 4-10 7-3 5-8-1-13-5-16-5-8-3-28-10-43-14-15-5-3-2 2-11-1-8-3-8v-5l17-14 10-8 14-12 10-8 4-2v-2l22-18z" fill="#F9FCFE"/>
<path transform="translate(1077,563)" d="m0 0 12 1 48 9 61 11 2 2 3 9 5 5-17 57-9 31-9 32-2 4-6-2-5-7-3-5-9-13-10-14-36-51-9-13-6-8-15-22-6-9 2-4 6-8z" fill="#F7FBFE"/>
<path transform="translate(990,415)" d="m0 0 4 1 6 9 8 5 8 2 7 30 11 46 3 11-1 5-9 7-7 8-6-2-17-10-16-9-10-6-19-11-16-10-24-14-20-12-14-8-4-1-3-3-9-5-3-3v-5l2-2 96-17z" fill="#F9FCFE"/>
<path transform="translate(1e3 690)" d="m0 0h7l25 7 13 4 22 7 2 1 3 10 5 3 1 6-8 61-2 21v5h1l4-34 3-24 2-15 1-17 8-5 5-5 20 6 22 6 21 6 3 9v5l-14 15-9 11-7 7-8 10h-2v2h-2l-2 4-13 14-6 8h-2l-2 4-6 7-7-1-10-4-1-4-1 4-6 1-2-1-8-20-8-16-18-38-7-16-6-12-11-23-1-8z" fill="#F6FBFE"/>
<path transform="translate(851,457)" d="m0 0 4 1 9 11 8 7 12 12 7 8 9 9v2l3 1 7 8 11 12 7 8 5 6 8 7 4 4-1 5-6 13-3 2 4-2 5-4 5 1 3 3 19 56 13 38 4 9v5l-7-2-7-5-10-5-10-7-11-7-26-16-11-7-6-4-1-2v-15l17-16 4-4-3-1-1 3-7 5-5 5-5 6-5-1-10-5-4-15-7-28-5-18-7-29-5-18-4-16-2-14v-5z" fill="#F7FBFE"/>
<path transform="translate(857,450)" d="m0 0 6 1 7 3 12 7 17 10 22 13 26 15 25 15 16 9 6 4 9 5 14 8 1 1-1 18 5 11v2h2l4 4v2l5 2 1 5-7 16-26 65-6 12-4-1-3-3-3-12-15-44-10-29-5-15v-7l4-4 2-3 21-2v-1l-24-1-3-3-10-2-1-3h-2v-2h-2v-2l-4-2-2-4h-2l-6-9-9-9-7-8-15-16-4-5-14-14-7-8-13-14z" fill="#F7FBFE"/>
<path transform="translate(884,1020)" d="m0 0h4l14 19 14 18 14 19 10 13 12 16 14 19 7 8 1 7-2 3-2 6-1 1-16-1-31-5-62-9-16-2-4-5-3-6-6-5 1-5 6-13 6-16 5-11 7-17 12-30 3-3h10z" fill="#F9FBFE"/>
<path transform="translate(644,599)" d="m0 0 7 1 5 3 13 5 10 5 5 3 1 3-2 5v9l5 8-1 5-8 11-14 21-7 10-12 18-7 11-3 3-4-1-6 4-2 3v5l2 2-1 7-10 19-21 41-20 40-2 3-8-1-2-1 1-10 9-34 18-66 13-47 7-26 11-39 3-7h4l1 5v27l1 40v25h2l-1-52-1-27v-19l10-5 3-4z" fill="#F5FAFE"/>
<path transform="translate(817,1146)" d="m0 0 6 1 5 2 4 5 5 7v2h2l4 6 8 11 20 28 12 16 10 14 13 18 9 12 5 6v5l-3 4-2 5-9-1-35-12-30-11-31-11-26-9-1-2-1-10-6-8-2-2 1-6 7-11 6-11 9-16 13-22z" fill="#F8FBFE"/>
<path transform="translate(1041,1376)" d="m0 0h56l16 4 12 6 10 10 5 8 4 10 1 6v16l-3 11-6 11-6 7-10 7-11 5-9 2-43 1-16-1z" fill="#0F8EFE"/>
<path transform="translate(1033,419)" d="m0 0 5 1 6 3 17 6 28 10 26 9 44 16 4 2-1 13-13 8-24 14-11 6-22 13-11 6-11 7-10-6-12-3-8-1-2-5-5-23-2-7-6-27-5-18-1-12 11-8z" fill="#F8FBFE"/>
<path transform="translate(1097,1135)" d="m0 0h10l10 7 2 6 14 88 3 18 1 10-2 2h-7l-10-8-13-10v-2l-4-2-11-10-9-7-11-10-9-7-14-12-3-2v-2l-4-2-11-9-9-7v-2l-4-2-8-9v-8l2-11 25-2 49-6z" fill="#FBFCFE"/>
<path transform="translate(958,911)" d="m0 0 6 1 1-1h6l13 13 5 6 6 5 7 8 10 10v2l4 2v2l3 1 7 8 8 8 7 8 6 5 3 4-2 4-4 4-1 3-45-1-45-3-38-2-11-1-1-5h-2l-4-10-3-4 1-5 8-7 23-23 7-8 23-23z" fill="#FAFCFE"/>
<path transform="translate(1161,483)" d="m0 0h6l3 3h13l4 10 12 38 10 30v8l-6 4-3 5-11-1-110-20-1-2-2-12-4-12 1-2 8-3 21-12 24-14 27-15z" fill="#F7FBFE"/>
<path transform="translate(895,627)" d="m0 0 6 1 5 4 18 11 17 11 16 10 14 9 12 7 2 4v6l-7 8-7 6h-2v2l-10 8-14 12-11 9-8 7h-2v2l-5 4h-2v2l-10 8-1 2-5-1-5-4-13-5-1-1v-22l1-92 2-4 8-2z" fill="#F8FBFE"/>
<path transform="translate(822,449)" d="m0 0 4 1 2 7-11 14-13 19-10 14-13 18-12 16-13 19-7 9-10 14-11 15-6 9-2 5-6-2-3-2h-10l-8 3-5 5-6-1-10-5-23-10-4-4 1-5 10-9 36-28 14-11 18-14 15-12 17-13 15-12 14-11 5-4 26-20z" fill="#F7FBFE"/>
<path transform="translate(1221,596)" d="m0 0h5l10 9 11 8 16 13 12 9 10 8 11 8 2 2v10l-15 9-36 20-17 10-18 10-11 6-12 7-1 2-8 1-5-5 1-8 7-23 5-18 7-23 10-34 4-14 4-4z" fill="#F6FBFE"/>
<path transform="translate(1160,982)" d="m0 0h7l3 5 4 3-1 7-8 20-18 49-13 35-5 13-4 2-2-3h-11l-21-48-11-25-7-16 1-4 4-5 1-2v-8l-3-6 1-3 47-8z" fill="#F6FAFE"/>
<path transform="translate(1278,812)" d="m0 0 5 1 2 25 3 45 1 29 2 22-5 3-4 6-2 5-8 3-22 6-14 4-39 11-5-1-5-4 1-6 10-16 7-12 9-15 16-26 18-30 8-14 16-26z" fill="#F8FBFE"/>
<path transform="translate(1310,671)" d="m0 0 6 1 9 9v2h2l18 22 10 11 10 13 10 11 10 13 11 12 6 8-1 4-3 2-33 5-47 5-16 1-6-8-9-4-3-1 4-20 10-43 7-30 3-11z" fill="#F6FBFE"/>
<path transform="translate(1187,991)" d="m0 0 8 1 13 11 13 10 17 14 9 7 10 7 1 2 3 2-4 9-9 6-27 14-19 10-25 13-13 7h-3v2l-12 4-9 5-3 3-5 1v-7l7-18 9-24 11-30 11-29 7-18 1-1z" fill="#F7FBFE"/>
<path transform="translate(890,809)" d="m0 0h5l4 6 10 14v2h2l4 6 8 11 14 19 9 13 8 10 3 3-2 10-1 6-7 7-7 8-19 19-7 8-16 16-4 5-1 3-7-2-3-4-1-14-1-37-1-73v-30l3-3h4v-2z" fill="#FBFCFE"/>
<path transform="translate(908,795)" d="m0 0 5 2 24 8 40 14 33 11 20 7 8 3 2 4-1 4v10l1 7-10 5-20 9-15 7-19 9-5 1-2-2-10-1-3-2-4-7-24-32-7-10-9-11-3-5-7-9-4-6v-2h-2l2-4 5-4z" fill="#F7FBFE"/>
<path transform="translate(786,703)" d="m0 0 7 1 8 7 6 5 5 5v2l4 2v2l4 2v2l4 2v2l4 2v2l4 2v2l4 2v2l4 2 13 13 1 5-2 3h-2l-1 12v4l-36 6-47 7h-7v2l-36 5-6-1-1-1v-5l9-10 7-11 13-18 10-14 12-17 10-14 6-9h2z" fill="#FAFCFE"/>
<path transform="translate(861,805)" d="m0 0 4 1 11 6 1 155-1 1h-8l-10-12-6-5-10-13-9-12-10-13-11-13-6-8-1-1 1-7 2-5-1-8-1-6 8-10 18-18 9-11 9-10z" fill="#FAFCFE"/>
<path transform="translate(841,459)" d="m0 0 4 1 5 16 13 51 12 48 6 21v7l-7 6-3 4-9-1-49-9-13-3-6-8 2-9 14-41 12-36 12-33 4-12z" fill="#F7FBFE"/>
<path transform="translate(1291,811)" d="m0 0h8l7 7 11 9 8 8 11 9 12 11 8 7 14 13 2 1v2l4 2 8 6v-2l-4-2-13-12-7-6v-2l-4-2-10-9-11-9-12-12h3l7 7 11 9 15 14 8 7 11 10 7 5v2l4 2h13l6-5 2 1-9 7-5-1-8 3-3 8-2 5-13 6-16 7-12 6-18 8-17 8-5 1-7-6-3-49-4-68z" fill="#F9FBFE"/>
<path transform="translate(1057,1026)" d="m0 0h14l7 15 16 35 8 19 8 17-1 5-3 2-1 11-5 2-49 6-37 4-7-1-6-7 1-5 6-11 10-19 6-12 12-22 9-16 7-14z" fill="#F8FBFE"/>
<path transform="translate(637,946)" d="m0 0 8 2 11 4 47 16 12 4 2 7 2 6 2 2-1 5-11 11-7 8-9 9-1 2h-2l-2 4-18 18-1 3-3 1-1 3-4 1-2 4h-2l-2 4-7 8-3 3-1 2-3-1-5-6-11-6-2-3 1-8 1-3 2-28 1-37 3-26 3-5z" fill="#F8FBFE"/>
<path transform="translate(722,643)" d="m0 0h2l5 6 11 9 8 6v2l4 2 14 12 11 9 5 4 1 9-4 6-10 14-11 15-11 16-14 19-9 13-7 10-4 5-11-3-1-2v-13l2-25 2-43 2-26 1-36 10-5z" fill="#FAFCFE"/>
<path transform="translate(1298,667)" d="m0 0h6l1 2v7l-8 34-7 31-8 35-2 4-9-1-30-13-31-13-23-10-3-3v-9l2-3 9-4 24-13 36-21 11-6 17-9 12-7z" fill="#F5FAFE"/>
<path transform="translate(1039,869)" d="m0 0 4 1 5 5 6 4 6 3 2 4 3-4h6l-4 2-1 5 2 103-7-1-1 1h-8l-20-20-7-8-10-10v-2l-4-2v-2l-3-1-7-8-5-4-7-8-11-11-2-1-3-8 1-6 5-5 39-17 15-7z" fill="#F9FCFE"/>
<path transform="translate(681,843)" d="m0 0 4 2 7 3 7 2 3 8 7 25 10 36 7 24 3 11v5l-8 5-4 5-6-1-36-12-22-7-12-4-4-4-2-8 9-19 9-17 16-32 10-19z" fill="#F8FBFE"/>
<path transform="translate(877,629)" d="m0 0 4 1v119l-9 3-7 3-7 6-5-2-8-7-6-7-7-6-5-6-3-2v-2l-4-2-19-19-4-5 1-4h2l1-8 5-5 11-9 10-8 13-10 10-8 5-5 13-11z" fill="#FBFCFE"/>
<path transform="translate(690,646)" d="m0 0 5 2 8 3 1 2v20l-4 58-2 35-2 30-12 5-3 2-4-1-8-15-5-7-6-11-13-22-5-8v-6l2-2-1-5-3-4 6-9 9-13 6-9 9-13 7-11 7-10z" fill="#FAFCFE"/>
<path transform="translate(1162,750)" d="m0 0h9l4 2 6 19 10 33 5 14 1 10-7 6-1 3h-2l-1 3-37 3-48 3h-5l-4-4-5-9 2-5 15-15 9-11 29-31 9-11 4-5z" fill="#F9FCFE"/>
<path transform="translate(573,874)" d="m0 0 4 1 4 6 11 14 14 19 11 14 1 3h2l1 7-2 5 1 5h2v2l6 2 1 4-3 39-4 63-3 3-10 3-2-2-6-23-2-6-2-9-2-7-2-9-2-7-4-15-6-25-5-18-6-25-4-16-4-17v-7l8-3z" fill="#F4FAFE"/>
<path transform="translate(1060,581)" d="m0 0 4 1 10 14 13 18 12 17 11 16 20 28 24 34 3 4v2l3 1 3 5-1 4-5 6-16-4-17-5-30-9-3-3-3-7-8-3-2-5-3-15-5-22-5-24-3-13-4-18-3-13v-6z" fill="#F7FBFE"/>
<path transform="translate(1266,1376)" d="m0 0h23l6 12 13 30 11 24 9 21 7 14v3l-25-1-8-20-2-1h-47l-8 17-2 4-3 1h-20l-1-2 9-19 11-25 13-29 9-21z" fill="#0F8EFE"/>
<path transform="translate(631,738)" d="m0 0 5 1 8 11 13 22 10 17 9 14 1 5-4 10-2 7-8 3-40 12-36 11-7 1-5-7 9-19 9-17 11-23 10-19 8-16 7-12z" fill="#F8FBFE"/>
<path transform="translate(668,828)" d="m0 0 5 1 6 11-2 5-8 16-11 20-8 16-15 29-3 6-2 2-5-1-5-2-2-5-12-15-8-11-8-10-8-11-4-5v-5l2-3 2-10 9-4 17-5 39-12z" fill="#F6FBFE"/>
<path transform="translate(1037,584)" d="m0 0h13l3 5 8 36 14 65 2 12-5 4-17-4-26-7-15-5-9-2-3-4-2-4v-6l5-11 11-28 12-30z" fill="#F6FAFE"/>
<path transform="translate(1e3 690)" d="m0 0h7l25 7 13 4 22 7 2 1 3 10 5 3 1 6-8 61-2 21v5h1l1-8h1v13l-1 4h-2l-1-4-1 4-6 1-2-1-8-20-8-16-18-38-7-16-6-12-11-23-1-8z" fill="#F6FAFE"/>
<path transform="translate(719,1376)" d="m0 0h23l1 64 3 11 5 6 6 3h15l8-3 6-7 3-12 1-62h22l1 3v55l-2 17-7 14-7 7-8 5-13 4h-21l-11-3-11-7-7-8-5-12-2-13z" fill="#0F8EFE"/>
<path transform="translate(857,450)" d="m0 0 6 1 7 3 12 7 17 10 22 13 26 15 25 15 16 9 6 4 9 5 14 8 1 1-1 10h-2v3l-28 1h-28l-4-2-10-2-1-3h-2v-2h-2v-2l-4-2-2-4h-2l-6-9-9-9-7-8-15-16-4-5-14-14-7-8-13-14z" fill="#F8FBFE"/>
<path transform="translate(1277,951)" d="m0 0 5 1 5 5 2 3-2 10-9 41-7 29-3 3h-8l-1-3h-2v-2l-5-2-11-9-16-13-13-11-14-11-5-5 4-13 5-2 9-2 13-4 25-7 23-7z" fill="#F7FBFE"/>
<path transform="translate(723,829)" d="m0 0h1l1 6-1 3 5 2 11 9 12 8 12 9 9 6 1 11 4 5v6l-12 19-6 11-8 13-9 15-3 6-6 1-3-4-3-9-3-13-6-21-10-37-6-20v-7l12-6 7-7z" fill="#F6FAFE"/>
<path transform="translate(1181,744)" d="m0 0h6l4 3 13 5 12 6 17 7 26 11 12 6 1 4-4 5v14l-19 10-23 13-9 5-5-1-2-3-10-3-6-19-9-30-5-15-2-8v-7z" fill="#F5FAFE"/>
<path transform="translate(939,565)" d="m0 0v3l-1 3-3 2 4-2 5-4 5 1 3 3 19 56 13 38 4 9v5l-7-2-7-5-10-5-10-7-11-7-26-16-11-7-6-4-1-2v-15l17-16 4-4-3-2z" fill="#F9FCFE"/>
<path transform="translate(891,1374)" d="m0 0h20l16 5 12 7 4 4v4l-8 7-4 4-5-2-14-7-4-1h-13l-10 4-7 5-6 9-2 6v17l5 12 7 7 11 5h18l12-6 5-4 4 1 9 8 2 3-1 4-11 8-11 5-15 3h-8l-14-3-12-5-9-7-8-9-6-12-3-13v-11l4-16 7-12 9-9 8-5 14-5z" fill="#0F8EFE"/>
<path transform="translate(1294,565)" d="m0 0h5l9 6 2 9 3 27 2 36-10 3-4 3-6-1-11-9-12-9-9-7-17-13-12-9-7-6-1-6 5-4 20-6z" fill="#F6FAFE"/>
<path transform="translate(1257,1059)" d="m0 0h4l1 28 1-21h1v29l-1 13-1 6 2 3-6-3h-8l-8 4-5 6h-2l-1 4h-12l-59-4-24-1v-4l10-5h2v-2l19-9 19-10 38-19 21-10z" fill="#FAFCFE"/>
<path transform="translate(1269,807)" d="m0 0h5l1 4-5 9-8 13-16 27-12 20-11 19-9 14-4 7-16 27-6 11-4 2-2-1-2 6-5 2h-3l-2-4-5-5-5-4-7-8-5-6 1-2 16 17 9 9 5-1 1-6 5-33h1l-1 13-1 11h2l2-19 3-19 5-36 3-17 1-2 10-2 5-6 1-10 11-7 12-6 22-12z" fill="#F3F9FE"/>
<path transform="translate(644,599)" d="m0 0 7 1 5 3 13 5 10 5 5 3 1 3-2 5v9l5 8-1 5-8 11-14 21-7 10-12 18-7 11-5 1-1-28-1-32-1-1-1-27v-19l10-5 3-4z" fill="#F7FBFE"/>
<path transform="translate(800,603)" d="m0 0h7l22 5 35 7 7 3 3 6-2 5-5 4-3 3h-2l1 3-6 1-1 3-8 4-17 14-14 11-11 9-11 8-3-1-1-22v-55l5-3z" fill="#FAFCFE"/>
<path transform="translate(1300,957)" d="m0 0 4 1 13 10v2l4 2 12 11 3 2v2l4 2 8 6 4 5-3 9-11 6-19 10-16 8-25 13-5-1 1-8 5-22 3-15 8-35 3-5z" fill="#F5FAFE"/>
<path transform="translate(776,604)" d="m0 0 5 1 5 6 5 1 1 54v22l3 1-2 1-2-1-1-3-1 2h-2v2l-6-1-13-11-11-9-10-8-6-5v-2l-4-2-3-2v-2l-4-2-5-4 1-5 3-13 8-3h3l1-3 21-8z" fill="#F8FBFE"/>
<path transform="translate(1250,1113)" d="m0 0h10l5 5 4 5 2 4v9l-2 3-1 6 16 4 28 9 2-5 6-3 5 1 6 5 1 2v8l-6 5-8 1-4-2-4-7-15-6-28-9h-6l-5 2h-10l-2 4-12 14-2 3h-2l-2 5-10 11-11 14-9 10-11 14-9 10-11 14-11 13-3 4v4l13-1 59-9h6v2l-13 3-60 10-3 4-2 5-5 4-2 1h-7l-6-4-4-6h-11l-6 1h-11l3-2 24-4 2-1-1-5-13-10-8-7-2-1v-2l-4-2-10-9-14-11-14-13-14-11-11-10-22-18v-2l-4-2-4-4 1-2 8 7 4 3v2l4 2 12 10 8 6v2l4 2 10 9 14 11 12 11 13 10 8 7v2l4 2 14 11 5 4h7l1-1-1-10-5-31-11-68v-5h2l2 8 5 30 3 19 2 15 3 14 4 23 2 4 3 1 7-6 7-8 11-14 9-10 11-14 9-10 11-14 9-10 11-14 11-12 2-5-7-8-2-7-25-1-15-2v-1h41l3-7 7-6z" fill="#0F8EFE"/>
<path transform="translate(615,1376)" d="m0 0h23l1 84h51l1 1v18h-76z" fill="#0F8EFE"/>
<path transform="translate(1064,1395)" d="m0 0h29l9 2 10 6 5 6 4 10v17l-4 10-6 7-10 5-7 2-11 1h-18l-1-1z" fill="#F7FBFE"/>
<path transform="translate(995,1375)" d="m0 0 5 1v103l-13 1-10-1v-103z" fill="#0F8EFE"/>
<path transform="translate(1362,1376)" d="m0 0h23v103h-23z" fill="#0F8EFE"/>
<path transform="translate(880,484)" d="m0 0h3l6 7 15 15 7 8 1 3 4 2 4 5v2l4 2 8 8v2h2l4 5 2 1v2h2v2h2l3 3 8 1 3 3 26 1 1 3-24 2-4 6h-2l2 11 14 40 15 44 2 6v6l-3-4-5-13-12-36-17-50-3-3-5 1-6 5-3-1 4-2 1-4 4-9 1-5-23-23-9-11-9-9-7-8-8-8-7-8z" fill="#0F8EFE"/>
<path transform="translate(902,992)" d="m0 0 2 4 28 2 52 3 14 1 37 1 8 1 1-5 2-1-2 11-1 4-1-3-15-1-38-1-29-2-50-2-8-1-1 2 1-7z" fill="#6CBFFE"/>
<path transform="translate(882,811)" d="m0 0h5l-4 2-2 2v30l1 73 1 37 1 14 2 3-6-2h-11l-4-1-1 3-4-5 1-2 2 2-2-5-4-5 1-2 7 8 3 4h8v-154h1l1 56 1-55z" fill="#83CCFE"/>
<path transform="translate(1276,1401)" d="m0 0 4 2 9 22 4 10v4l-2 1h-29l-2-3 15-35z" fill="#EFF8FE"/>
<path transform="translate(1065,882)" d="m0 0h6l-4 2-1 5 2 103-7-1-1 1h-8l-20-20 1-2 20 20h6l1-2v-105l2 3z" fill="#83CCFE"/>
<path transform="translate(1184,1452)" d="m0 0 9 2 6 7 1 8-4 7-6 4-7 1-6-3-4-5-1-2v-10l6-7z" fill="#0F8EFE"/>
<path transform="translate(1121,1274)" d="m0 0h5l-4 2-20 3 8 1v1l-51 7-31 4-20 1-14 2h-6v2l-22 3v-3l-1-5 2 2 11-1 114-15z" fill="#83CCFE"/>
<path transform="translate(703,652)" d="m0 0h2v39l1-12 1-25h1v34l-3 44-2 38-1 12v14l-3-1v-22l-2 22h-1v-16l2-25 2-41 3-40z" fill="#68BDFE"/>
<path transform="translate(1289,812)" d="m0 0 2 1-2 4 4 68 3 49 1 2-4-2-6 4-2-1 5-3-2-22-1-29-4-62v-6l2 4 2 25v-29z" fill="#83CCFE"/>
<path transform="translate(1187,837)" d="m0 0 1 3-5 1v2h5l-1 2-28 3-36 2-26 2-1 2-1-7v-3l1 1 35-2 31-2 24-2z" fill="#83CCFE"/>
<path transform="translate(785,611)" d="m0 0 6 1 1 54v22l3 1-2 1-2-1-1-3-1 2h-2v2l-6-1-3-4 5 2 2 1z" fill="#83CCFE"/>
<path transform="translate(1151,1108)" d="m0 0 2 1-4 4 2 1-12 6v2l39 2 44 3h12l2-3-1 5h-35l9 1 25 1v3l-61-4-23-1v-1l31-1-21-2h-24l-6-5 1-6h1v5l6-3 5-4z" fill="#83CCFE"/>
<path transform="translate(859,639)" d="m0 0 4 1-11 9-4 5-14 11-12 9-12 10-7 5-3 10h-1l-1-9-3-2 11-8 13-11 13-10 17-14 7-3z" fill="#83CCFE"/>
<path transform="translate(1127,1024)" d="m0 0 7 1 5 5 2 3-1 7-4 5-4 2-6-1-5-4-2-4 1-8 5-5z" fill="#0F8EFE"/>
<path transform="translate(856,449)" d="m0 0h9l9 5v2l-4-1-9-4-4-1 2 6 7 7 7 8 14 15 2 4 3 1 7 8 16 17 11 12 3 3-1 2-8-7-6-8-5-5-15-16-3-3v-2l-4-2v-2l-4-2v-2l-5-1-12-12-5-4-6-7v-2h-4v10l-2-4-1-4 2-4h5z" fill="#70C2FE"/>
<path transform="translate(1273,1216)" d="m0 0h8l5 5 1 7-4 5-4 2-7-1-5-5-1-3 2-6 3-3z" fill="#0F8EFE"/>
<path transform="translate(1180,1165)" d="m0 0 6 1 5 4 1 8-4 5-2 1h-6l-6-4-1-2v-7z" fill="#0F8EFE"/>
<path transform="translate(1015,551)" d="m0 0h1l1 10h-32l-23 1-2 1 1-3 21-2v-1l-24-1-1-2h58z" fill="#83CCFE"/>
<path transform="translate(1251,724)" d="m0 0h7l5 5v8l-7 6-5-1-6-7 1-6z" fill="#0F8EFE"/>
<path transform="translate(640,1115)" d="m0 0 4 2 25 25 7 8 41 41v2l4 2v2l4 2 7 8 9 8v2l4 2 3 3v2h-2v-2l-4-2-28-28v-2h-2l-4-4v-2h-2v-2h-2v-2h-2v-2l-4-2v-2l-3-1-5-5v-2h-2l-7-8-18-18v-2l-3-1-7-8-13-13z" fill="#83CCFE"/>
<path transform="translate(1148,619)" d="m0 0h7l5 4v8l-4 5-4 1-7-2-3-5 1-6z" fill="#0F8EFE"/>
<path transform="translate(1245,904)" d="m0 0 7 1 4 5v7l-5 5-7-1-5-5-1-5 4-6z" fill="#0F8EFE"/>
<path transform="translate(1234,644)" d="m0 0h7l6 6-1 7-5 4-7-1-5-4-1-5 4-6z" fill="#0F8EFE"/>
<path transform="translate(700,731)" d="m0 0h1l1 13 2-1v14l-2 25v14l-3-1v-22l-2 22h-1v-16l2-25 1-22z" fill="#83CCFE"/>
<path transform="translate(1327,733)" d="m0 0 7 1 4 4v8l-6 5-6-1-5-6v-6z" fill="#0F8EFE"/>
<path transform="translate(1071,464)" d="m0 0 7 1 4 6-1 6-6 5-5-1-5-5v-7l3-4z" fill="#0F8EFE"/>
<path transform="translate(1389,829)" d="m0 0h9l4 4 1 5-3 5-5 3-7-3-3-4 1-6z" fill="#0F8EFE"/>
<path transform="translate(969,465)" d="m0 0h8l5 6-1 6-7 5-7-3-3-4 1-6z" fill="#0F8EFE"/>
<path transform="translate(1329,876)" d="m0 0 6 2 4 4v6l-5 5-4 1-5-3-3-3 1-7 3-4z" fill="#0F8EFE"/>
<path transform="translate(1323,829)" d="m0 0 4 2 14 13 8 7 10 9 8 7 11 10 7 5v2l4 2h13l6-5 2 1-9 7-5-1-8 3-3 8h-1l1-9-3-4h2v-2l-4-2-13-12-7-6v-2l-4-2-10-9-11-9-12-12z" fill="#7EC9FE"/>
<path transform="translate(902,992)" d="m0 0 2 4 28 2 21 1 6 1v1l-41-1-1 1 2 1 40 2v1h-27l-22-1-8-1-1 2 1-7z" fill="#83CCFE"/>
<path transform="translate(850,770)" d="m0 0 1 3-1 8v8l1 3-19 2-11 2h-9l4-2h8v-2h13l1-2 7 1v-3l-30 5-48 7h-8v-1l86-13h4l-1-10z" fill="#83CCFE"/>
<path transform="translate(911,475)" d="m0 0 6 2 22 13 16 9 7 5 11 6 19 11 11 7 11 6 6 2v3l-6-2-17-10-16-9-10-6-19-11-16-10-24-14z" fill="#83CCFE"/>
<path transform="translate(1037,1241)" d="m0 0 7 3 2 2v7l-6 5-6-1-5-5v-5l5-5z" fill="#0F8EFE"/>
<path transform="translate(628,644)" d="m0 0h1l1 40v25h2v-51h1l2 56-1 4 3 1-3 1h-3l-3-1z" fill="#83CCFE"/>
<path transform="translate(1464,748)" d="m0 0h8l3 4v9l-4 3h-8l-3-3v-8z" fill="#0F8EFE"/>
<path transform="translate(1389,1108)" d="m0 0h7l4 4v7l-4 4h-8l-4-4 1-8z" fill="#0F8EFE"/>
<path transform="translate(1089,1280)" d="m0 0h6l-2 2-26 3-12 2-18 2-18 3-25 3-6 1h-11l3-2 55-7z" fill="#0F8EFE"/>
<path transform="translate(1185,924)" d="m0 0h1l-1 13-1 11h2l1-4v9l5-4-2 6-5 5-3-1-2 6-5 2h-3l-2-4-5-5-5-4-7-8-5-6 1-2 16 17 9 9 5-1 1-6z" fill="#83CCFE"/>
<path transform="translate(1260,1063)" d="m0 0h1l1 24 1-21h1v29l-1 13-1 6 2 3-6-3-8-1v-1l6-1 2-13z" fill="#83CCFE"/>
<path transform="translate(939,565)" d="m0 0v3l-1 3-3 2 4-2h3l-15 14-28 28 1-5 16-15 4-4-3-2z" fill="#81CBFE"/>
<path transform="translate(1013,1168)" d="m0 0 4 2 10 8 13 11 3 2v2l4 2 10 8v2l4 2 11 9 10 9 7 5v2l6 3v2l-4-2-10-8-11-10-9-7-14-12-3-2v-2l-4-2-11-9-9-7v-2l-4-2z" fill="#83CCFE"/>
<path transform="translate(880,630)" d="m0 0h1v119l-1 1h-5l3-2z" fill="#83CCFE"/>
<path transform="translate(1117,385)" d="m0 0 8 1 3 4-1 6-4 3-7-1-4-5 1-5z" fill="#0F8EFE"/>
<path transform="translate(1094,844)" d="m0 0 7 1 23-1v2l-7 1 16 1v1l-36 3-1 2-1-7z" fill="#83CCFE"/>
<path transform="translate(1097,1135)" d="m0 0h10l1 2h-9l-52 6-29 3-6 2-2 7-1-4 1-7 25-2 49-6z" fill="#83CCFE"/>
<path transform="translate(1363,512)" d="m0 0h6l3 3-1 7-3 3h-6l-4-3-1-4 4-5z" fill="#0F8EFE"/>
<path transform="translate(1032,1286)" d="m0 0h5l-2 2-55 7 8 1v1l-22 3v-3l-1-5 2 2 11-1z" fill="#83CCFE"/>
<path transform="translate(867,466)" d="m0 0 7 6 12 13 3 3v2l3 1 7 8 16 17 11 12 3 3-1 2-8-7-6-8-5-5-15-16-3-3v-2l-4-2v-2l-4-2v-2h-3l-1-4-3-1-2-5h-2l-5-6z" fill="#83CCFE"/>
<path transform="translate(918,999)" d="m0 0 29 1 18 2-1 2h-22l-23-1-3-3z" fill="#0F8EFE"/>
<path transform="translate(1149,525)" d="m0 0 7 1 2 3v6l-3 3h-6l-5-5 2-6z" fill="#0F8EFE"/>
<path transform="translate(1466,900)" d="m0 0h6l2 2v8l-4 3-8-2-2-6 3-4z" fill="#0F8EFE"/>
<path transform="translate(1045,998)" d="m0 0 1 2-2 9-1 4-1-3-15-1 1-4h-17v-2h24l8 1 1-5z" fill="#83CCFE"/>
<path transform="translate(1311,569)" d="m0 0h1l4 34 3 36v5l-3-1-1-23-2-21-1-4z" fill="#83CCFE"/>
<path transform="translate(1292,905)" d="m0 0h2l2 29 1 2-4-2-6 4-2-1 5-3-1-9v-11h2z" fill="#83CCFE"/>
<path transform="translate(1444,642)" d="m0 0 7 1 1 7-3 4h-6l-3-3v-5z" fill="#0F8EFE"/>
<path transform="translate(1217,1006)" d="m0 0 4 2 11 9 13 10v2l4 2 9 6 4 3h6l3-4-1 5-2 2h-8l-1-3h-2v-2l-5-2-11-9-16-13-8-7z" fill="#83CCFE"/>
<path transform="translate(1242,524)" d="m0 0 5 1 2 2v6l-3 3-6-1-3-4 1-5z" fill="#0F8EFE"/>
<path transform="translate(1288,866)" d="m0 0h2l2 27v28h-1l-2-20z" fill="#0F8EFE"/>
<path transform="translate(1373,589)" d="m0 0 6 1 1 1v7l-3 2h-6l-2-2v-5z" fill="#0F8EFE"/>
<path transform="translate(1137,844)" d="m0 0h21v1l-11 2-14 1h-19l3-2z" fill="#0F8EFE"/>
<path transform="translate(779,800)" d="m0 0h7v1l-50 8-12 1v6l-2-3-1-5 26-3z" fill="#83CCFE"/>
<path transform="translate(725,992)" d="m0 0 3 1-8 7-27 27-2-1 19-19 7-8z" fill="#AFDEFE"/>
<path transform="translate(1095,1237)" d="m0 0 4 2 10 9 17 13 4 3 5 1v1h-7l-10-8-13-10v-2l-4-2z" fill="#83CCFE"/>
<path transform="translate(1323,829)" d="m0 0 4 2 14 13 8 7 10 9 1 2-4-2-10-9-11-9-12-12z" fill="#83CCFE"/>
<path transform="translate(627,1018)" d="m0 0h1v43l-3-1-2-3 1-8 1-3z" fill="#83CCFE"/>
<path transform="translate(859,639)" d="m0 0 4 1-11 9-4 5-6-1 6-7 8-4z" fill="#68BDFE"/>
<path transform="translate(738,844)" d="m0 0 5 2 15 11 14 10h4l-1 3-6-2-9-7-13-9-9-7z" fill="#83CCFE"/>
<path transform="translate(1231,597)" d="m0 0 5 2 11 9 14 11 8 6h-3l-11-8-13-10-9-7z" fill="#83CCFE"/>
<path transform="translate(1237,985)" d="m0 0h7v7l-3 3-4-1-2-3 1-5z" fill="#0F8EFE"/>
<path transform="translate(1186,1048)" d="m0 0h5l2 4-3 5-6-1-1-1v-5z" fill="#0F8EFE"/>
<path transform="translate(1382,946)" d="m0 0h5l1 7-2 2h-6l-2-5z" fill="#0F8EFE"/>
<path transform="translate(844,649)" d="m0 0m-1 1m-1 1m-1 1h6l-3 5-6 5h-5l1-4z" fill="#5EB8FE"/>
<path transform="translate(1068,796)" d="m0 0h1v19h1l1-8h1v13l-1 4h-2l-1-4-1 4-2-1 1-1z" fill="#83CCFE"/>
<path transform="translate(905,628)" d="m0 0 6 2 9 6 15 9 7 5-3 1-15-10-18-11z" fill="#83CCFE"/>
<path transform="translate(965,1292)" d="m0 0 2 2h10v2h11v1l-22 3v-3z" fill="#7DC9FE"/>
<path transform="translate(860,462)" d="m0 0 4 1 7 8 1 3h2l3 5 3 3-1 2-14-14z" fill="#0F8EFE"/>
<path transform="translate(1217,785)" d="m0 0h5l2 2-1 5-5 2-3-3 1-5z" fill="#0F8EFE"/>
<path transform="translate(1093,1176)" d="m0 0 5 1 1 1v5l-7 1-2-1v-5z" fill="#0F8EFE"/>
<path transform="translate(916,946)" d="m0 0v3l-18 18-4 5-1 3-4-2 6-5 7-8z" fill="#83CCFE"/>
<path transform="translate(1118,719)" d="m0 0 7 1 28 8 6-1-2 4-16-4-17-5-6-2z" fill="#83CCFE"/>
<path transform="translate(1337,982)" d="m0 0 4 2 4 3v2l5 2 5 4 4-2 5 1 1 2-5-1-2 3-6-2-11-9-4-3z" fill="#83CCFE"/>
<path transform="translate(945,653)" d="m0 0 5 2 19 12 5 3-3 1-16-10-10-7z" fill="#83CCFE"/>
<path transform="translate(1388,752)" d="m0 0 7 6 2 4h2l5 6 4 1 1-2-1 4-6-1v-2h-2l-9-11-3-3z" fill="#83CCFE"/>
<path transform="translate(850,456)" d="m0 0h5l10 12-1 2-9-10v-2h-4v10l-2-4-1-4z" fill="#83CCFE"/>
<path transform="translate(1424,932)" d="m0 0 7 6 8 10 1 3-4 1-1-2h2l-4-6-9-10z" fill="#80CAFE"/>
<path transform="translate(1302,810)" d="m0 0 8 6 13 12h-3l-12-11-6-5z" fill="#83CCFE"/>
<path transform="translate(828,1109)" d="m0 0 1 3-5 5h-11l-2 1-2-5 2 1 2-3 3 4h7l4-4z" fill="#83CCFE"/>
<path transform="translate(914,595)" d="m0 0 2 1-17 17 1-5z" fill="#B0DEFE"/>
<path transform="translate(840,745)" d="m0 0 5 3 9 9 5 2-1 2-5-2-8-7-5-5z" fill="#83CCFE"/>
<path transform="translate(637,946)" d="m0 0 8 2 7 3-4 1-6-3-5 1-5 5 1-4z" fill="#98D4FE"/>
<path transform="translate(737,616)" d="m0 0 3 1-6 3h6l-3 2-7 2 1-3-3-1z" fill="#83CCFE"/>
<path transform="translate(1007,1157)" d="m0 0h1l2 8-2 1 4 5-4-2-2-2-4-2 4-4z" fill="#83CCFE"/>
<path transform="translate(839,653)" d="m0 0m-1 1m-1 1 2 3 2 1-3 3h-5l1-4z" fill="#6DC0FE"/>
<path transform="translate(859,639)" d="m0 0 4 1-8 7-3-1v-2l4-2z" fill="#0F8EFE"/>
<path transform="translate(786,703)" d="m0 0 7 1-4 1-7 6-4 4 2-5 3-4h2z" fill="#9BD6FE"/>
<path transform="translate(985,670)" d="m0 0 3 4v5l-7-2-2-3 7 2z" fill="#83CCFE"/>
<path transform="translate(863,449)" d="m0 0 6 2 5 3v2l-4-1-7-5z" fill="#0F8EFE"/>
</svg>
