<svg xmlns="http://www.w3.org/2000/svg" xmlns:xlink="http://www.w3.org/1999/xlink" width="500" zoomAndPan="magnify" viewBox="0 0 375 374.999991" height="500" preserveAspectRatio="xMidYMid meet" version="1.0"><defs><clipPath id="94b9a4f512"><path d="M 50 47.160156 L 337 47.160156 L 337 327.660156 L 50 327.660156 Z M 50 47.160156 " clip-rule="nonzero"/></clipPath></defs><g clip-path="url(#94b9a4f512)"><path fill="#18a5f3" d="M 162.191406 327.640625 C 165.558594 327.625 168.75 326.097656 170.863281 323.476562 L 236.804688 242.195312 C 239.539062 238.804688 243.582031 236.75 247.90625 236.457031 C 264.390625 235.375 271.039062 257.28125 256.734375 265.546875 L 256.015625 265.960938 C 240.597656 274.722656 225.179688 283.480469 209.765625 292.242188 C 208.535156 292.9375 207.453125 293.863281 206.566406 294.960938 L 195.289062 308.941406 C 189.347656 316.308594 194.601562 327.269531 204.0625 327.246094 C 220.371094 327.207031 236.675781 327.175781 252.980469 327.136719 C 256.417969 327.136719 259.65625 325.554688 261.785156 322.859375 L 278.316406 301.917969 C 280.402344 299.277344 281.199219 295.832031 280.472656 292.542969 L 258.039062 190.3125 C 257.089844 186.054688 258.007812 181.621094 260.464844 178.054688 C 269.898438 164.488281 291.167969 172.949219 288.714844 189.285156 L 288.589844 190.109375 C 285.824219 207.621094 283.058594 225.140625 280.292969 242.660156 C 280.078125 244.050781 280.117188 245.476562 280.425781 246.851562 L 284.324219 264.386719 C 286.378906 273.625 298.230469 276.351562 304.117188 268.945312 C 313.523438 257.085938 325.613281 241.871094 334.535156 230.632812 C 336.671875 227.945312 337.460938 224.429688 336.671875 221.085938 L 330.609375 195.109375 C 329.84375 191.824219 327.644531 189.058594 324.625 187.578125 L 230.703125 141.378906 C 226.789062 139.460938 223.890625 135.988281 222.632812 131.839844 C 217.914062 116.011719 237.789062 104.648438 249.027344 116.761719 L 249.597656 117.371094 C 261.570312 130.449219 273.535156 143.542969 285.507812 156.617188 C 286.457031 157.660156 287.601562 158.511719 288.867188 159.128906 L 305.011719 167.015625 C 313.515625 171.171875 323.03125 163.601562 320.90625 154.386719 C 317.246094 138.496094 313.585938 122.609375 309.925781 106.71875 C 309.152344 103.375 306.894531 100.5625 303.789062 99.089844 L 279.699219 87.632812 C 276.65625 86.1875 273.125 86.179688 270.074219 87.617188 L 175.398438 132.242188 C 171.460938 134.109375 166.933594 134.203125 162.910156 132.605469 C 147.589844 126.433594 151.097656 103.800781 167.574219 102.5625 L 168.402344 102.503906 C 186.089844 101.296875 203.785156 100.101562 221.472656 98.894531 C 222.878906 98.800781 224.261719 98.4375 225.535156 97.835938 L 241.765625 90.136719 C 250.316406 86.082031 250.339844 73.921875 241.796875 69.828125 C 227.089844 62.785156 212.382812 55.746094 197.683594 48.703125 C 194.585938 47.21875 190.976562 47.234375 187.894531 48.734375 L 163.921875 60.429688 C 160.890625 61.902344 158.683594 64.660156 157.910156 67.945312 L 133.765625 169.789062 C 132.777344 174.027344 130.019531 177.628906 126.257812 179.777344 C 111.882812 187.902344 96.378906 171.046875 105.679688 157.398438 L 106.144531 156.710938 C 116.230469 142.128906 126.328125 127.550781 136.414062 112.96875 C 137.21875 111.808594 137.796875 110.503906 138.113281 109.128906 L 142.207031 91.640625 C 144.363281 82.425781 134.878906 74.828125 126.359375 78.949219 C 112.730469 85.546875 95.246094 94.019531 82.328125 100.269531 C 79.238281 101.769531 77 104.59375 76.257812 107.949219 L 70.457031 133.984375 C 69.722656 137.277344 70.503906 140.722656 72.582031 143.371094 L 137.148438 225.742188 C 139.84375 229.164062 140.949219 233.558594 140.277344 237.839844 C 137.664062 254.144531 114.824219 255.757812 109.953125 239.96875 L 109.703125 239.175781 C 104.597656 222.195312 99.484375 205.210938 94.378906 188.234375 C 93.96875 186.882812 93.3125 185.621094 92.441406 184.511719 L 81.316406 170.398438 C 75.453125 162.96875 63.597656 165.648438 61.511719 174.886719 C 57.921875 190.789062 54.328125 206.695312 50.730469 222.597656 C 49.972656 225.949219 50.785156 229.457031 52.9375 232.136719 L 69.675781 252.910156 C 71.792969 255.535156 74.96875 257.070312 78.34375 257.09375 L 183.007812 257.96875 C 187.363281 257.992188 191.488281 259.867188 194.414062 263.066406 C 205.539062 275.277344 192.554688 294.140625 177.175781 288.109375 L 176.402344 287.808594 C 159.941406 281.21875 143.480469 274.621094 127.023438 268.023438 C 125.707031 267.5 124.316406 267.230469 122.90625 267.222656 L 104.9375 267.121094 C 95.476562 267.066406 90.175781 278.011719 96.09375 285.398438 C 106.289062 298.117188 116.476562 310.847656 126.675781 323.578125 C 128.820312 326.257812 132.074219 327.8125 135.511719 327.796875 L 162.191406 327.664062 Z M 132.226562 204.414062 L 141.410156 160.378906 C 142.105469 157.027344 144.300781 154.175781 147.351562 152.632812 L 187.511719 132.347656 C 190.570312 130.804688 194.160156 130.734375 197.265625 132.164062 L 238.15625 150.910156 C 241.269531 152.339844 243.566406 155.105469 244.382812 158.425781 L 255.222656 202.082031 C 256.046875 205.40625 255.3125 208.917969 253.226562 211.636719 L 225.847656 247.332031 C 223.761719 250.050781 220.554688 251.664062 217.132812 251.734375 L 172.15625 252.585938 C 168.734375 252.644531 165.464844 251.15625 163.28125 248.511719 L 134.574219 213.878906 C 132.390625 211.246094 131.523438 207.753906 132.226562 204.410156 Z M 132.226562 204.414062 " fill-opacity="1" fill-rule="nonzero"/></g></svg>