<svg xmlns="http://www.w3.org/2000/svg" xmlns:xlink="http://www.w3.org/1999/xlink" width="500" zoomAndPan="magnify" viewBox="0 0 375 374.999991" height="500" preserveAspectRatio="xMidYMid meet" version="1.0"><defs><clipPath id="62511e9b57"><path d="M 122.351562 121.566406 L 213.851562 121.566406 L 213.851562 210.816406 L 122.351562 210.816406 Z M 122.351562 121.566406 " clip-rule="nonzero"/></clipPath></defs><g clip-path="url(#62511e9b57)"><path fill="#18a5f3" d="M 157.984375 210.644531 C 159.054688 210.636719 160.066406 210.152344 160.738281 209.320312 L 181.683594 183.503906 C 182.550781 182.429688 183.835938 181.773438 185.207031 181.683594 C 190.445312 181.339844 192.554688 188.296875 188.011719 190.921875 L 187.785156 191.054688 C 182.886719 193.835938 177.992188 196.617188 173.09375 199.398438 C 172.703125 199.621094 172.359375 199.914062 172.078125 200.261719 L 168.496094 204.703125 C 166.609375 207.042969 168.277344 210.527344 171.285156 210.519531 C 176.460938 210.507812 181.640625 210.496094 186.820312 210.484375 C 187.910156 210.484375 188.941406 209.980469 189.617188 209.125 L 194.867188 202.472656 C 195.53125 201.636719 195.78125 200.539062 195.550781 199.496094 L 188.425781 167.027344 C 188.125 165.675781 188.417969 164.265625 189.199219 163.132812 C 192.191406 158.824219 198.949219 161.511719 198.167969 166.699219 L 198.128906 166.960938 C 197.25 172.523438 196.375 178.089844 195.496094 183.652344 C 195.425781 184.09375 195.4375 184.546875 195.535156 184.984375 L 196.777344 190.554688 C 197.429688 193.488281 201.191406 194.351562 203.0625 192 C 206.050781 188.234375 209.890625 183.402344 212.722656 179.832031 C 213.402344 178.976562 213.652344 177.863281 213.402344 176.800781 L 211.476562 168.550781 C 211.234375 167.507812 210.535156 166.628906 209.574219 166.15625 L 179.746094 151.484375 C 178.5 150.875 177.582031 149.773438 177.179688 148.453125 C 175.683594 143.425781 181.996094 139.820312 185.5625 143.664062 L 185.746094 143.859375 C 189.546875 148.011719 193.347656 152.171875 197.152344 156.324219 C 197.453125 156.65625 197.816406 156.925781 198.21875 157.121094 L 203.347656 159.625 C 206.046875 160.945312 209.070312 158.542969 208.394531 155.617188 C 207.230469 150.570312 206.070312 145.523438 204.90625 140.476562 C 204.660156 139.414062 203.945312 138.519531 202.957031 138.050781 L 195.304688 134.414062 C 194.339844 133.957031 193.21875 133.953125 192.25 134.410156 L 162.179688 148.582031 C 160.929688 149.175781 159.492188 149.203125 158.210938 148.695312 C 153.347656 146.738281 154.460938 139.546875 159.695312 139.15625 L 159.957031 139.136719 C 165.574219 138.753906 171.195312 138.375 176.8125 137.992188 C 177.261719 137.960938 177.699219 137.847656 178.105469 137.65625 L 183.257812 135.207031 C 185.972656 133.921875 185.980469 130.058594 183.269531 128.757812 C 178.597656 126.523438 173.925781 124.285156 169.257812 122.050781 C 168.273438 121.578125 167.128906 121.582031 166.148438 122.058594 L 158.535156 125.773438 C 157.570312 126.242188 156.871094 127.117188 156.625 128.160156 L 148.957031 160.507812 C 148.640625 161.855469 147.765625 162.996094 146.570312 163.679688 C 142.003906 166.261719 137.082031 160.90625 140.035156 156.574219 L 140.183594 156.355469 C 143.386719 151.722656 146.59375 147.09375 149.796875 142.460938 C 150.050781 142.09375 150.238281 141.679688 150.335938 141.242188 L 151.636719 135.6875 C 152.320312 132.761719 149.308594 130.347656 146.601562 131.65625 C 142.277344 133.75 136.722656 136.441406 132.621094 138.425781 C 131.636719 138.902344 130.925781 139.800781 130.691406 140.867188 L 128.847656 149.136719 C 128.617188 150.179688 128.863281 151.277344 129.523438 152.117188 L 150.03125 178.277344 C 150.886719 179.367188 151.238281 180.761719 151.023438 182.121094 C 150.195312 187.300781 142.941406 187.8125 141.390625 182.796875 L 141.3125 182.546875 C 139.691406 177.152344 138.066406 171.757812 136.445312 166.367188 C 136.316406 165.9375 136.109375 165.535156 135.832031 165.183594 L 132.296875 160.703125 C 130.4375 158.339844 126.667969 159.191406 126.007812 162.125 C 124.867188 167.179688 123.726562 172.230469 122.582031 177.28125 C 122.34375 178.34375 122.601562 179.460938 123.285156 180.3125 L 128.601562 186.90625 C 129.273438 187.742188 130.28125 188.230469 131.351562 188.238281 L 164.597656 188.515625 C 165.980469 188.523438 167.289062 189.117188 168.21875 190.132812 C 171.753906 194.011719 167.628906 200.003906 162.742188 198.085938 L 162.5 197.992188 C 157.269531 195.898438 152.042969 193.804688 146.8125 191.707031 C 146.398438 191.542969 145.957031 191.457031 145.507812 191.453125 L 139.800781 191.421875 C 136.792969 191.40625 135.113281 194.882812 136.992188 197.226562 C 140.230469 201.265625 143.464844 205.308594 146.703125 209.351562 C 147.386719 210.203125 148.417969 210.699219 149.511719 210.691406 L 157.984375 210.652344 Z M 148.46875 171.503906 L 151.382812 157.519531 C 151.605469 156.453125 152.300781 155.550781 153.269531 155.058594 L 166.027344 148.617188 C 166.996094 148.125 168.136719 148.101562 169.125 148.558594 L 182.113281 154.511719 C 183.101562 154.964844 183.828125 155.84375 184.089844 156.898438 L 187.53125 170.765625 C 187.792969 171.820312 187.5625 172.9375 186.898438 173.800781 L 178.203125 185.136719 C 177.539062 186 176.519531 186.511719 175.433594 186.535156 L 161.148438 186.804688 C 160.0625 186.824219 159.023438 186.351562 158.328125 185.511719 L 149.214844 174.511719 C 148.519531 173.675781 148.246094 172.566406 148.46875 171.503906 Z M 148.46875 171.503906 " fill-opacity="1" fill-rule="nonzero"/></g></svg>